<svg width="50" height="50" viewBox="0 0 50 50" fill="none" xmlns="http://www.w3.org/2000/svg">
<circle cx="24.9839" cy="24.9839" r="24.9839" fill="#F2F3FC"/>
<path fill-rule="evenodd" clip-rule="evenodd" d="M25.2063 12.15C25.5424 11.9171 25.9546 11.8211 26.359 11.8818L33.7617 12.9921L33.6257 13.8992L26.2229 12.7889C26.0497 12.7629 25.873 12.804 25.729 12.9038L20.3955 16.6014C20.2678 16.69 20.1738 16.8191 20.1289 16.9679L18.4632 22.4834C18.3298 22.925 18.6604 23.3702 19.1218 23.3702H19.366C19.6462 23.3702 19.8984 23.2002 20.0036 22.9405L22.0148 17.9755L22.8649 18.3199L20.8538 23.2849C20.6083 23.8909 20.0198 24.2874 19.366 24.2874H19.1218C18.0453 24.2874 17.2739 23.2487 17.5851 22.2182L19.2508 16.7027C19.3557 16.3556 19.5749 16.0542 19.8729 15.8476L25.2063 12.15Z" fill="#5F3FE0"/>
<circle cx="23.9826" cy="24.0321" r="5.46885" fill="#9686E8"/>
<path fill-rule="evenodd" clip-rule="evenodd" d="M37.4243 20.8894C37.5603 21.0651 37.8087 21.1178 38.0065 21.0035L41.7941 18.8168L41.845 18.7826C42.0208 18.6466 42.0734 18.3983 41.9592 18.2004L41.925 18.1495C41.789 17.9737 41.5407 17.9211 41.3428 18.0353L37.9464 19.9962L32.9307 11.3089L36.3272 9.34785L36.3781 9.31367C36.5539 9.17768 36.6065 8.92932 36.4923 8.73149C36.3677 8.51568 36.0918 8.44174 35.876 8.56634L32.0884 10.7531L32.0374 10.7873C31.8616 10.9233 31.809 11.1716 31.9232 11.3695L36.2899 18.9327L30.9774 22.0005L23.3682 19.6189L23.2819 19.5907C22.8909 19.4393 22.6688 19.0157 22.7755 18.6187L22.8032 18.4698C22.9116 18.0193 23.4193 17.7098 23.8332 17.8204L27.9165 18.6725L27.9828 18.6813C28.2023 18.6941 28.4041 18.5446 28.4503 18.3229C28.5012 18.0789 28.3446 17.8399 28.1007 17.789L24.0418 16.9427L23.9369 16.9187C23.0588 16.7508 22.0916 17.3864 21.9098 18.3323L21.8981 18.4103L21.8776 18.498C21.7066 19.3697 22.2473 20.2531 23.117 20.4855L30.8965 22.9204L30.9575 22.9349C31.0599 22.9519 31.1658 22.9331 31.2569 22.8806L36.7411 19.7143L37.3901 20.8384L37.4243 20.8894Z" fill="#5F3FE0"/>
<path d="M23.671 22.1054L23.7272 22.1084C24.4467 22.2121 24.8293 22.7194 24.8293 23.524C24.8293 24.2019 24.2414 24.6664 23.6252 24.8054L23.5981 24.8101L24.7366 25.9355C24.8591 26.0564 24.8603 26.2538 24.7393 26.3762C24.6184 26.4987 24.421 26.5 24.2986 26.379L22.414 24.5136L22.3964 24.4906L22.3774 24.4336L22.3358 24.2999L22.8294 24.0539L22.8563 24.0755L22.9167 24.1336C23.1948 24.4046 24.2059 24.0858 24.2059 23.524C24.2059 23.0129 24.0318 22.7821 23.6383 22.7254C23.4679 22.7009 23.3497 22.5429 23.3742 22.3725C23.396 22.221 23.5233 22.1108 23.671 22.1054Z" fill="#5F3FE0"/>
<path d="M25.4527 22.1054C25.6249 22.1054 25.7644 22.245 25.7644 22.4171C25.7644 22.5701 25.6542 22.6974 25.5088 22.7238L25.4527 22.7288H22.6475C22.4754 22.7288 22.3358 22.5892 22.3358 22.4171C22.3358 22.2641 22.4461 22.1368 22.5915 22.1104L22.6475 22.1054H25.4527Z" fill="#5F3FE0"/>
<path d="M25.4527 23.0408C25.6249 23.0408 25.7644 23.1804 25.7644 23.3525C25.7644 23.5055 25.6542 23.6328 25.5088 23.6592L25.4527 23.6642H22.6475C22.4754 23.6642 22.3358 23.5247 22.3358 23.3525C22.3358 23.1995 22.4461 23.0722 22.5915 23.0459L22.6475 23.0408H25.4527Z" fill="#5F3FE0"/>
<path fill-rule="evenodd" clip-rule="evenodd" d="M14.4556 23.1513C15.3169 23.3738 16.1183 23.8662 16.4962 24.4051C16.6263 24.5905 16.742 24.8436 16.8375 25.1513C17.3503 26.8052 17.8119 27.6133 18.8253 28.6322C19.8967 29.7091 21.0773 30.3528 22.5726 30.6753C22.9964 30.7667 23.212 30.7826 24.0192 30.7826C24.8182 30.7826 25.0431 30.7663 25.4452 30.6788C26.4161 30.4676 27.3479 30.0785 28.1088 29.5665L28.4988 29.304L28.6375 29.6659C29.0089 30.6346 29.134 31.3053 29.1338 32.3281C29.1336 33.5547 28.9138 34.4387 28.2904 35.7197C27.88 36.5631 27.4261 37.2573 26.877 37.8815C26.6569 38.1317 26.4073 38.4374 26.3223 38.561C25.928 39.134 25.6448 40.0057 25.5832 40.8358C25.552 41.2563 25.5349 41.3195 25.4162 41.4524L25.2839 41.6004H23.4501H21.6163L21.4779 41.4455C21.3437 41.2953 21.3395 41.2757 21.3395 40.7946V40.2985L21.1853 40.3329C21.1006 40.3518 20.5243 40.3673 19.9048 40.3673H18.7783V40.829C18.7783 41.272 18.7727 41.2969 18.64 41.4455L18.5016 41.6004L16.6965 41.6139L14.8913 41.6274L14.7166 41.4674L14.542 41.3073L14.5095 40.529C14.4803 39.8289 14.4636 39.7174 14.3436 39.4187C14.1247 38.8738 13.8849 38.5516 13.1936 37.8739C12.1157 36.8171 11.4021 35.748 11.0698 34.6918L10.9852 34.4231L10.5064 34.4072C9.93735 34.3882 9.72335 34.2994 9.50593 33.9917L9.36365 33.7904L9.34885 32.3596C9.33296 30.8289 9.34904 30.6824 9.56029 30.4313C9.77073 30.1812 9.92957 30.1249 10.4987 30.0989L11.0171 30.0752L11.1653 29.6953C11.5652 28.6701 12.14 27.8172 13.023 26.9387C13.6428 26.3222 13.6495 26.3132 13.7065 26.0235C13.8252 25.4204 13.7088 24.825 13.3251 24.072C13.1127 23.6551 13.0996 23.5699 13.2118 23.3335C13.3665 23.0074 13.7062 22.9577 14.4556 23.1513ZM13.8489 28.816C13.6729 28.9413 13.5158 29.2444 13.5158 29.4586C13.5158 29.6728 13.6729 29.9759 13.8489 30.1012C13.955 30.1767 14.0906 30.2187 14.2695 30.2311C14.5751 30.2525 14.7832 30.1432 14.9752 29.8606C15.0701 29.7209 15.0844 29.6507 15.069 29.4008C15.0495 29.0838 14.9657 28.9478 14.6757 28.762C14.478 28.6353 14.0648 28.6623 13.8489 28.816Z" fill="#9686E8"/>
</svg>
