<svg width="32" height="32" viewBox="0 0 32 32" xmlns="http://www.w3.org/2000/svg">
    <g fill="none" fill-rule="evenodd">
        <circle fill="#271BC1" opacity=".2" cx="16" cy="16" r="16"/>
        <path d="M17 12.6a4.4 4.4 0 1 0 0 8.8 4.4 4.4 0 0 0 0-8.8zm0 .8a3.6 3.6 0 1 1 0 7.2 3.6 3.6 0 0 1 0-7.2z" fill="#271BC1" fill-rule="nonzero"/>
        <path d="M23.668 7c.16 0 .294.115.325.268l.007.067v18.33a.335.335 0 0 1-.265.328l-.067.007h-5.991a.334.334 0 0 1-.332-.335c0-.162.114-.298.265-.329l.067-.007h5.658V7.67h-12.67v5.728a.335.335 0 0 1-.266.329l-.067.006a.333.333 0 0 1-.325-.267L10 13.399V7.335c0-.162.114-.297.265-.328L10.332 7h13.336z" fill="#271BC1" fill-rule="nonzero"/>
        <path d="M20.648 9c.194 0 .352.18.352.4 0 .193-.12.355-.281.392l-.071.008h-8.296c-.194 0-.352-.18-.352-.4 0-.193.12-.355.281-.392L12.352 9h8.296zM20.648 11c.194 0 .352.18.352.4 0 .193-.12.355-.281.392l-.071.008h-8.296c-.194 0-.352-.18-.352-.4 0-.193.12-.355.281-.392l.071-.008h8.296z" fill="#271BC1" fill-rule="nonzero"/>
        <g fill="#271BC1" fill-rule="nonzero">
            <path d="M18.472 16.1c.292 0 .528.18.528.4 0 .193-.18.355-.421.392l-.107.008h-2.944c-.292 0-.528-.18-.528-.4 0-.193.18-.355.421-.392l.107-.008h2.944zM18.472 15.1c.292 0 .528.18.528.4 0 .193-.18.355-.421.392l-.107.008h-2.944c-.292 0-.528-.18-.528-.4 0-.193.18-.355.421-.392l.107-.008h2.944z"/>
            <path d="M16.186 15c.993 0 1.782.755 1.782 1.663 0 .694-.461 1.299-1.123 1.545l-.13.04 1.128.967c.18.155.206.396.074.575l-.066.072a.578.578 0 0 1-.656.065l-.082-.057-1.955-1.675c-.309-.265-.135-.71.262-.777l.103-.008h.663a.748.748 0 0 0 .117-1.485l-.117-.01c-.289 0-.523-.204-.523-.457s.234-.458.523-.458z"/>
        </g>
        <path fill-opacity=".5" fill="#271BC1" d="M5 16.332h2.537v7.223H5"/>
        <path d="M14.683 22.64a.926.926 0 0 0 0-1.18l-3.21-3.972-3.936-.06v4.394l3.422 3.072c.092.106.277.106.37.106l6.472-.847c.37 0 .647-.424.647-.848s-.277-.848-.74-.848h-2.812" fill-opacity=".5" fill="#271BC1"/>
        <path d="M11.529 20.55a.2.2 0 0 1 .247-.039l.044.034 1.976 2.01c.212.242.688.148.948-.243a.374.374 0 0 0 .065-.154.206.206 0 0 1 .246-.164c.11.025.181.14.157.256a.863.863 0 0 1-.112.285l-.034.044c-.359.544-1.074.712-1.491.35l-2.042-2.076a.222.222 0 0 1-.004-.304z" fill="#E8EBF9" fill-rule="nonzero"/>
    </g>
</svg>
