<svg width="32" height="32" viewBox="0 0 32 32" xmlns="http://www.w3.org/2000/svg">
    <g fill="none" fill-rule="evenodd">
        <circle fill="#6592D7" opacity=".2" cx="16" cy="16" r="16"/>
        <path d="M25.993 19.231H14.312a.828.828 0 0 1-.83-.823v-6.913c0-.221.087-.433.249-.587l5.813-5.672a.837.837 0 0 1 1.161-.003l5.872 5.675a.812.812 0 0 1 .248.587v6.907a.83.83 0 0 1-.832.83" fill-opacity=".6" fill="#6592D7"/>
        <g stroke="#6592D7" stroke-linecap="round" stroke-linejoin="round">
            <path d="M5.139 24.93h3.979V14.602H5M16.118 20.99l2.56 2.71a1.246 1.246 0 0 0 1.838-.029 1.515 1.515 0 0 0-.016-2.026l-4.837-5.29h0-6.545"/>
            <path d="m9.53 22.427 5.119 4.53 11.05-1.397a1.287 1.287 0 0 0 1.126-1.277 1.099 1.099 0 0 0-1.134-1.098l-4.631.148h0"/>
        </g>
    </g>
</svg>
