<svg width="49" height="49" viewBox="0 0 49 49" fill="none" xmlns="http://www.w3.org/2000/svg">
<circle cx="24.5" cy="24.5" r="24.5" fill="#FFDDED"/>
<mask id="mask0_1728_2348" style="mask-type:alpha" maskUnits="userSpaceOnUse" x="9" y="7" width="35" height="36">
<rect x="9.00049" y="7.80029" width="34.9995" height="34.9995" fill="#C4C4C4"/>
</mask>
<g mask="url(#mask0_1728_2348)">
<circle cx="17.8603" cy="16.7544" r="8.95409" fill="#F197C2"/>
<path fill-rule="evenodd" clip-rule="evenodd" d="M17.821 18.6011C17.7701 18.536 17.6724 18.5338 17.6186 18.5965L12.6856 24.3412C12.6127 24.4261 12.6731 24.5574 12.7849 24.5574H22.2138C22.3229 24.5574 22.3841 24.4317 22.3169 24.3458L17.821 18.6011Z" stroke="#E22D84" stroke-width="1.31248"/>
<path fill-rule="evenodd" clip-rule="evenodd" d="M27.6084 18.602C27.5567 18.5368 27.458 18.5358 27.405 18.6L22.6606 24.3431C22.5901 24.4285 22.6508 24.5574 22.7616 24.5574H32.0629C32.1724 24.5574 32.2335 24.4309 32.1655 24.3451L27.6084 18.602Z" stroke="#7F7F7F" stroke-width="1.31248"/>
<path d="M40.2792 21.1017C40.0502 20.8208 39.6368 20.7787 39.3559 21.0077C39.075 21.2367 39.0329 21.6501 39.2619 21.931L40.2792 21.1017ZM37.5164 19.7704C37.7484 20.0489 38.1622 20.0865 38.4406 19.8545C38.7191 19.6225 38.7567 19.2087 38.5247 18.9302L37.5164 19.7704ZM37.1909 18.597L37.6969 19.0149L37.1909 18.597ZM37.3924 18.5965L36.8883 19.0166L37.3924 18.5965ZM36.685 18.179L31.9376 23.9251L32.9494 24.7611L37.6969 19.0149L36.685 18.179ZM32.5444 25.2136H41.974V23.9011H32.5444V25.2136ZM42.5841 23.9291L40.2792 21.1017L39.2619 21.931L41.5668 24.7584L42.5841 23.9291ZM38.5247 18.9302L37.8966 18.1764L36.8883 19.0166L37.5164 19.7704L38.5247 18.9302ZM41.974 25.2136C42.6374 25.2136 43.0033 24.4433 42.5841 23.9291L41.5668 24.7584C41.2871 24.4152 41.5313 23.9011 41.974 23.9011V25.2136ZM31.9376 23.9251C31.5135 24.4384 31.8786 25.2136 32.5444 25.2136V23.9011C32.9888 23.9011 33.2325 24.4185 32.9494 24.7611L31.9376 23.9251ZM37.6969 19.0149C37.4873 19.2686 37.0989 19.2694 36.8883 19.0166L37.8966 18.1764C37.581 17.7977 36.999 17.799 36.685 18.179L37.6969 19.0149Z" fill="#E22D84"/>
<path fill-rule="evenodd" clip-rule="evenodd" d="M17.9913 18.4753C17.8822 18.4753 17.821 18.601 17.8882 18.6869L22.3822 24.4292C22.4337 24.495 22.5329 24.4963 22.5862 24.4319L27.3298 18.6896C27.4003 18.6042 27.3396 18.4753 27.2289 18.4753H17.9913Z" stroke="#E22D84" stroke-width="1.31248"/>
<path fill-rule="evenodd" clip-rule="evenodd" d="M27.7779 18.4753C27.6684 18.4753 27.6073 18.6018 27.6754 18.6876L32.2324 24.4307C32.2842 24.4959 32.3829 24.4969 32.4359 24.4327L37.1802 18.6896C37.2507 18.6042 37.19 18.4753 37.0793 18.4753H27.7779Z" stroke="#E22D84" stroke-width="1.31248"/>
<path fill-rule="evenodd" clip-rule="evenodd" d="M32.432 24.5573C32.3732 24.5573 32.3217 24.5964 32.3059 24.653L27.5375 41.7557C27.4996 41.8914 27.6736 41.9829 27.764 41.8748L34.8117 33.4489L36.671 31.226L38.5303 29.0031L40.3896 26.7802L42.0692 24.7721C42.1405 24.6869 42.0799 24.5573 41.9688 24.5573H32.432Z" stroke="#E22D84" stroke-width="1.31248"/>
<path fill-rule="evenodd" clip-rule="evenodd" d="M12.7801 24.5573C12.669 24.5573 12.6085 24.6869 12.6797 24.7721L26.9882 41.8787C27.0785 41.9866 27.2521 41.8956 27.2148 41.76L22.5089 24.6534C22.4933 24.5966 22.4416 24.5573 22.3827 24.5573H12.7801Z" stroke="#E22D84" stroke-width="1.31248"/>
<path fill-rule="evenodd" clip-rule="evenodd" d="M22.6554 24.5573C22.569 24.5573 22.5063 24.6395 22.5292 24.7229L27.2503 41.8848C27.2856 42.0129 27.467 42.0132 27.5026 41.8853L32.2869 24.7233C32.3102 24.6399 32.2475 24.5573 32.1609 24.5573H22.6554Z" stroke="#E22D84" stroke-width="1.31248"/>
</g>
</svg>
